<svg width="24" height="24" viewBox="0 0 24 24" fill="none" xmlns="http://www.w3.org/2000/svg">
    <path
        d="M2.88104 7.33138C2.91728 6.75164 3.39803 6.29999 3.9789 6.29999L20.0211 6.29999C20.602 6.29999 21.0827 6.75164 21.119 7.33138L21.8362 18.8066C21.9477 20.5913 20.5303 22.1 18.7422 22.1H5.2578C3.46966 22.1 2.0523 20.5913 2.16384 18.8066L2.88104 7.33138Z"
        stroke="black" stroke-width="1.8" />
    <path d="M15.3002 9.90002C15.3002 11.7226 13.8227 13.2 12.0002 13.2C10.1777 13.2 8.7002 11.7226 8.7002 9.90002"
        stroke="black" stroke-width="1.8" stroke-linecap="round" />
    <path
        d="M15.3002 5.95001V4.30001C15.3002 2.47747 13.8227 1.00001 12.0002 1.00001C10.1777 1.00001 8.7002 2.47747 8.7002 4.30001V5.95001"
        stroke="black" stroke-width="1.8" stroke-linecap="round" />
</svg>